<svg xmlns="http://www.w3.org/2000/svg" width="1485.095" height="250.936" viewBox="0 0 1485.095 250.936">
  <g id="Group_111" data-name="Group 111" transform="translate(-102 -484)">
    <g id="Symbol_1" data-name="Symbol 1" transform="translate(694.451 484)">
      <rect id="Rectangle_1457" data-name="Rectangle 1457" width="250.936" height="250.936" transform="translate(0)" fill="none"/>
      <path id="Path_2" data-name="Path 2" d="M117.463,205.537c94.8,0,146.379-78.069,146.379-146.379v-6.97c9.759-6.97,18.123-16.729,25.093-26.488a115.726,115.726,0,0,1-29.276,8.365c11.153-6.97,18.123-16.729,22.305-27.882A127.87,127.87,0,0,1,249.9,18.729,49.788,49.788,0,0,0,212.261,2C184.379,2,160.68,25.7,160.68,53.581c0,4.182,0,8.365,1.394,11.153C118.857,61.946,81.217,42.429,56.123,10.365a53.389,53.389,0,0,0-6.97,26.488c0,18.123,9.759,33.458,22.305,43.217a47,47,0,0,1-23.7-6.97h0a50.949,50.949,0,0,0,41.823,50.187c-4.182,1.394-8.364,1.394-13.941,1.394-2.788,0-6.97,0-9.759-1.394,6.97,20.911,25.094,34.852,48.793,36.246-18.123,13.941-40.429,22.305-64.128,22.305-4.182,0-8.364,0-12.547-1.394,22.305,16.729,50.187,25.094,79.463,25.094" transform="translate(-38 29.367)" fill="#fff" fill-rule="evenodd"/>
    </g>
    <g id="Symbol_1-2" data-name="Symbol 1" transform="translate(102 501.425)">
      <rect id="Rectangle_1458" data-name="Rectangle 1458" width="220.848" height="220.848" fill="none"/>
      <path id="Path_1" data-name="Path 1" d="M154.843,220.848V120.239H189.2L194.1,80.978H154.843V56.439c0-11.042,3.681-19.631,19.631-19.631h20.858V1.227C190.424,1.227,178.155,0,164.658,0c-29.446,0-50.3,18.4-50.3,51.531V80.978H80v39.262h34.354V220.848Z" transform="translate(-24.788)" fill="#fff" fill-rule="evenodd"/>
    </g>
    <g id="g_" data-name="g+" transform="translate(1313.038 484)">
      <rect id="Rectangle_121" data-name="Rectangle 121" width="250.935" height="250.935" fill="none"/>
      <path id="Path_51" data-name="Path 51" d="M274.057,75.365v25.693H248.364v25.693H222.671V99.345H196.978V75.365h25.693V49.673h25.693V75.365Zm-186.7,0h82.217c0,5.139,1.713,8.564,1.713,13.7,0,49.673-32.544,85.642-83.93,85.642C39.4,174.711,0,135.315,0,87.355S39.4,0,87.356,0c23.98,0,42.821,8.564,58.237,22.267l-23.98,23.98c-6.851-6.851-17.129-13.7-34.257-13.7-29.119,0-54.811,23.98-54.811,54.811s23.98,54.811,54.811,54.811c34.257,0,47.96-23.98,49.673-37.683H87.356Z" transform="translate(0 32.313)" fill="#fff" fill-rule="evenodd"/>
    </g>
  </g>
</svg>
