<svg xmlns="http://www.w3.org/2000/svg" width="27.651" height="29.096" viewBox="0 0 27.651 29.096">
  <g id="adults" transform="translate(-1278.312 88.534)">
    <path id="Path_1523" data-name="Path 1523" d="M1320.778-88.534a2.672,2.672,0,0,1,1.738,1.347,2.522,2.522,0,0,1-1.87,3.622,2.568,2.568,0,0,1-2.615-1.347,2.5,2.5,0,0,1,.419-2.864,2.807,2.807,0,0,1,1.306-.758Z" transform="translate(-36.563)" fill="#2699fb"/>
    <path id="Path_1524" data-name="Path 1524" d="M1525.4-88.534a2.758,2.758,0,0,1,1.451.932,2.383,2.383,0,0,1,.351,2.507,2.381,2.381,0,0,1-1.962,1.523,2.382,2.382,0,0,1-2.458-1.111,2.366,2.366,0,0,1-.07-2.627,2.606,2.606,0,0,1,1.666-1.225Z" transform="translate(-226.199)" fill="#2699fb"/>
    <path id="Path_1525" data-name="Path 1525" d="M1466.935,11.391q0-1.816,0-3.633c0-.358-.034-.4-.382-.4-.917-.017-.744.035-.746.724-.006,2.28,0,4.56,0,6.839a1.589,1.589,0,0,1-.287,1.072,1.166,1.166,0,0,1-1.244.41,1.2,1.2,0,0,1-.923-1,3.83,3.83,0,0,1-.039-.565q0-3.306,0-6.612c0-.472,0-.472-.484-.472s-.984,0-1.476,0a1.043,1.043,0,0,1-.953-.944,2.815,2.815,0,0,1,.18-1.079q1.613-4.528,3.208-9.062c.019-.054.037-.107.053-.162a.189.189,0,0,0-.12-.253.18.18,0,0,0-.237.1c-.074.153-.137.311-.2.47q-1.06,2.858-2.117,5.718a1.283,1.283,0,0,1-1.532.721,1.108,1.108,0,0,1-.41-1.317c.463-1.24.936-2.476,1.393-3.718.327-.887.68-1.762.965-2.665a3.447,3.447,0,0,1,2.956-2.192c1.229-.026,2.461-.042,3.689,0a3.177,3.177,0,0,1,2.906,2.418,11.221,11.221,0,0,0,.78,2.035c.517,1.29,1.04,2.578,1.579,3.859a1.6,1.6,0,0,1-.162,1.381.377.377,0,0,1-.344.218,1.306,1.306,0,0,1-1.439-.85c-.715-1.9-1.451-3.8-2.179-5.695-.047-.124-.094-.247-.147-.369s-.145-.239-.3-.172-.14.2-.089.335q.536,1.465,1.063,2.933c.79,2.187,1.588,4.371,2.364,6.564a1.342,1.342,0,0,1-.225,1.483.7.7,0,0,1-.549.242c-.586-.008-1.173.008-1.759-.007-.249-.007-.324.073-.323.323q.012,3.562,0,7.123a1.236,1.236,0,0,1-1.43,1.24,1.351,1.351,0,0,1-1.034-1.408C1466.931,13.812,1466.935,12.6,1466.935,11.391Z" transform="translate(-167.628 -75.891)" fill="#2699fb"/>
    <path id="Path_1526" data-name="Path 1526" d="M1280.734,6.144q0-4.639,0-9.279c0-.239-.054-.342-.315-.33s-.219.18-.219.335q0,3.377,0,6.754a.872.872,0,0,1-.448.852.968.968,0,0,1-1.047-.056.744.744,0,0,1-.356-.553,4.223,4.223,0,0,1-.04-.536q0-3.519,0-7.037a5.472,5.472,0,0,1,.069-.931,2.2,2.2,0,0,1,1.872-1.741,4.446,4.446,0,0,1,1.18-.126c1.674.007,3.348,0,5.023.008a3.3,3.3,0,0,1,1.58.394,2.23,2.23,0,0,1,1.182,2.113q.009,3.618,0,7.236a1.125,1.125,0,0,1-.357.894.868.868,0,0,1-1.424-.322,1.843,1.843,0,0,1-.116-.723q0-3.121,0-6.243c0-.172.005-.322-.243-.314-.182.006-.262.069-.251.251.006.094,0,.189,0,.284q0,8.953,0,17.906a5.444,5.444,0,0,1-.049.706.96.96,0,0,1-.785.861,1.718,1.718,0,0,1-.979-.045,1,1,0,0,1-.644-.921,3.808,3.808,0,0,1-.006-.4q0-5.235,0-10.471c0-.392,0-.392-.385-.392-.778,0-.778,0-.778.769v9.9c0,.114,0,.227,0,.34-.047,1.118-.724,1.371-1.632,1.214a.989.989,0,0,1-.831-1.008c-.008-.132,0-.265,0-.4Q1280.733,10.642,1280.734,6.144Z" transform="translate(0 -76.032)" fill="#2699fb"/>
  </g>
</svg>
