<svg xmlns="http://www.w3.org/2000/svg" width="36.81" height="23.803" viewBox="0 0 36.81 23.803">
  <g id="children" transform="translate(-567.602 -220.541)">
    <path id="Path_1517" data-name="Path 1517" d="M919.438,286.493a.6.6,0,0,1-.649.344c-.207-.035-.131.137-.131.223-.006.957.006,1.913-.007,2.87a1.724,1.724,0,0,1-3.448.015c0-1.012,0-2.024,0-3.035v-.283c-.418.293-.567.292-.932.012-.059.083-.027.176-.028.262,0,.984,0,1.968,0,2.953a1.729,1.729,0,1,1-3.454,0c0-.929,0-1.858,0-2.787,0-.181-.02-.266-.238-.231a.531.531,0,0,1-.531-.321c-.022.006-.044.005-.052.016-.246.314-.491.394-.751.243a.65.65,0,0,1-.241-.824c.344-.843.7-1.68,1.053-2.52a4.915,4.915,0,0,1,.215-.508,4.9,4.9,0,0,0,.55-2.764c-.043-.724-.015-1.453,0-2.179a.64.64,0,0,0-.212-.508q-2.235-2.194-4.46-4.4a1.38,1.38,0,0,1-.469-1.049,1.33,1.33,0,0,1,.847-1.276,1.28,1.28,0,0,1,1.48.275c.968.931,1.919,1.879,2.879,2.818q.829.81,1.667,1.61a3.049,3.049,0,0,0,4.384.009c1.518-1.46,3.015-2.941,4.527-4.408a1.374,1.374,0,0,1,2.325.658,1.347,1.347,0,0,1-.406,1.333c-1.376,1.356-2.733,2.731-4.133,4.061a1.63,1.63,0,0,0-.576,1.385c.048.936.015,1.876.011,2.814a1.21,1.21,0,0,0,.1.48q.825,1.987,1.64,3.978c.028.068.058.135.082.2a.656.656,0,0,1-.265.816C919.944,286.926,919.7,286.841,919.438,286.493Z" transform="translate(-319.386 -47.323)" fill="#2699fb"/>
    <path id="Path_1518" data-name="Path 1518" d="M572.74,284.046c0-2,0-3.992,0-5.988a.649.649,0,0,0-.213-.507q-2.244-2.2-4.479-4.418a1.395,1.395,0,0,1,.391-2.306,1.308,1.308,0,0,1,1.5.29c1.083,1.05,2.154,2.112,3.233,3.167q.681.665,1.373,1.319a3.021,3.021,0,0,0,4.176.044c1.473-1.36,2.884-2.786,4.313-4.193a2.322,2.322,0,0,1,.923-.68,1.384,1.384,0,0,1,1.579.606,1.353,1.353,0,0,1-.181,1.679c-.821.831-1.657,1.647-2.487,2.469-.706.7-1.411,1.4-2.124,2.09a.553.553,0,0,0-.14.453q0,4.636,0,9.272c0,.892.009,1.785,0,2.677a1.726,1.726,0,0,1-3.419.316,2.1,2.1,0,0,1-.029-.411c0-1.472-.007-2.944,0-4.415,0-.248-.065-.336-.313-.284a.782.782,0,0,1-.329,0c-.3-.07-.33.074-.329.324.009,1.481.012,2.962,0,4.443a1.65,1.65,0,0,1-.915,1.53,1.632,1.632,0,0,1-1.754-.075,1.656,1.656,0,0,1-.781-1.467Q572.74,287.013,572.74,284.046Z" transform="translate(0 -47.398)" fill="#2699fb"/>
    <path id="Path_1519" data-name="Path 1519" d="M982.034,223.636a1.388,1.388,0,0,1-1.481.062c-.295-.15-.309-.221-.078-.459a2.081,2.081,0,0,1,.692-.466,2.964,2.964,0,0,1-1.542-1.867c-.111-.339-.076-.393.283-.358a2.864,2.864,0,0,1,2.576,1.864c.144.356.346.421.679.253a2.95,2.95,0,0,1,2.806.006.415.415,0,0,0,.663-.244,2.865,2.865,0,0,1,2.62-1.88c.318-.027.343.013.253.317a2.979,2.979,0,0,1-1.513,1.9,3.058,3.058,0,0,1,.676.5c.2.23.19.281-.081.423a1.38,1.38,0,0,1-1.484-.054c.819,1.721.624,3.212-1.04,4.285a3,3,0,0,1-4.478-2.157A3.179,3.179,0,0,1,982.034,223.636Z" transform="translate(-389.227 0)" fill="#2699fb"/>
    <path id="Path_1520" data-name="Path 1520" d="M680.667,228.089a.436.436,0,0,1,0,.137,1.471,1.471,0,0,0,.28,1.282,3.125,3.125,0,0,1-2.678,4.646,3.168,3.168,0,0,1-2.962-1.968,3.119,3.119,0,0,1,.771-3.463c.15-.134.166-.215.049-.379a1.374,1.374,0,0,1-.2-1.5c.031-.063.05-.155.135-.157s.1.1.129.16a1.211,1.211,0,0,0,1.664.692c.36-.108.706-.262,1.058-.4a2.03,2.03,0,0,1,.751-.158C680.333,227,680.672,227.374,680.667,228.089Z" transform="translate(-101.543 -5.809)" fill="#2699fb"/>
  </g>
</svg>
