<svg xmlns="http://www.w3.org/2000/svg" xmlns:xlink="http://www.w3.org/1999/xlink" width="375" height="76.984" viewBox="0 0 375 76.984"><defs><clipPath id="a"><rect width="375" height="76.984" fill="none"/></clipPath><filter id="b" x="0" y="0" width="375" height="90.984" filterUnits="userSpaceOnUse"><feOffset dy="4" input="SourceAlpha"/><feGaussianBlur stdDeviation="8" result="c"/><feFlood flood-color="#455b63" flood-opacity="0.078"/><feComposite operator="in" in2="c"/><feComposite in="SourceGraphic"/></filter><clipPath id="d"><rect width="24" height="24" fill="none"/></clipPath></defs><g transform="translate(0 -206)"><g transform="translate(0 206)" clip-path="url(#a)"><g transform="matrix(1, 0, 0, 1, 0, 0)" filter="url(#b)"><path d="M12,0H315c6.627,0,12,4.062,12,9.072v24.84c0,5.01-5.373,9.072-12,9.072H12c-6.627,0-12-4.062-12-9.072V9.072C0,4.062,5.373,0,12,0Z" transform="translate(24 20)" fill="#fff"/></g><text transform="translate(55 46.292)" fill="#454f63" font-size="16" font-family="Gibson-Light, Gibson" font-weight="300"><tspan x="0" y="0">Currency</tspan></text><text transform="translate(286 46.292)" fill="#959dad" font-size="16" font-family="Gibson-Light, Gibson" font-weight="300"><tspan x="0" y="0">PHP</tspan></text></g><g transform="translate(317 261) rotate(-90)" clip-path="url(#d)"><rect width="24" height="24" fill="none"/><rect width="8" height="2" rx="1" transform="translate(8.414 8.464) rotate(45)" fill="#2699fb"/><rect width="8" height="2" rx="1" transform="translate(11.3 14.121) rotate(-45)" fill="#2699fb"/></g></g></svg>