<svg xmlns="http://www.w3.org/2000/svg" width="18.198" height="18.198" viewBox="0 0 18.198 18.198">
  <g id="edit" transform="translate(-390.181 -165.886)">
    <path id="Path_1537" data-name="Path 1537" d="M390.181,213.819q0-3.577,0-7.153a1.111,1.111,0,0,1,.858-1.144,1.973,1.973,0,0,1,.452-.046q4.516,0,9.033,0c.012,0,.024,0,.036,0,.065.006.156-.026.186.038.039.081-.059.121-.106.168-.385.389-.779.77-1.157,1.166a.62.62,0,0,1-.494.208q-3.33-.01-6.661,0a.622.622,0,0,0-.354.062.529.529,0,0,0-.242.5q0,2.527,0,5.055,0,3.659,0,7.317c0,.46.169.63.624.63h12.372c.425,0,.564-.14.564-.571q0-3.358,0-6.715a.547.547,0,0,1,.177-.433c.416-.4.819-.815,1.229-1.222.036-.036.07-.1.13-.076s.041.1.041.15q0,1.113,0,2.226,0,3.422,0,6.843a2.067,2.067,0,0,1-.045.489,1.128,1.128,0,0,1-1.051.863H405.7q-7.171,0-14.343,0a1.136,1.136,0,0,1-1.161-.957,1.6,1.6,0,0,1-.017-.29Q390.18,217.368,390.181,213.819Z" transform="translate(0 -38.081)" fill="#2699fb"/>
    <path id="Path_1538" data-name="Path 1538" d="M510.1,236.513c-.138,0-.1-.089-.083-.152.067-.315.139-.629.208-.943.131-.593.265-1.185.391-1.78a.583.583,0,0,1,.163-.3q1.882-1.937,3.761-3.877,2.051-2.116,4.1-4.237c.13-.135.2-.133.329,0q1.133,1.15,2.285,2.283c.125.123.127.193,0,.318q-3.34,3.265-6.673,6.539c-.465.456-.931.909-1.394,1.366a.608.608,0,0,1-.312.171c-.9.193-1.792.393-2.687.591Z" transform="translate(-115.262 -56.988)" fill="#2699fb"/>
    <path id="Path_1539" data-name="Path 1539" d="M755.663,165.886a.89.89,0,0,1,.58.238c.5.494.994.985,1.483,1.485a.836.836,0,0,1,0,1.172c-.465.481-.946.946-1.416,1.422-.092.093-.156.081-.241-.005q-1.2-1.209-2.413-2.413c-.087-.087-.094-.151,0-.241.476-.47.946-.946,1.422-1.416A.878.878,0,0,1,755.663,165.886Z" transform="translate(-349.585)" fill="#2699fb"/>
  </g>
</svg>
