<svg xmlns="http://www.w3.org/2000/svg" width="132.268" height="154" viewBox="0 0 132.268 154">
  <g id="flyme-logo" transform="translate(-124 -251)">
    <text id="FlyMe" transform="translate(153 399)" fill="#fff" font-size="25" font-family="Quicksand-Bold, Quicksand" font-weight="700"><tspan x="0" y="0">FlyMe</tspan></text>
    <g id="Group_67" data-name="Group 67">
      <circle id="Ellipse_6" data-name="Ellipse 6" cx="55" cy="55" r="55" transform="translate(129 251)" fill="#1b73bc"/>
      <g id="Group_66" data-name="Group 66" transform="translate(761.732 2829.608)">
        <path id="Path_1527" data-name="Path 1527" d="M-637.732-2567.188c1.353-.814,2.642-.272,3.944.173q64.161,21.961,128.324,43.917v2.351c-6.994,3.523-14,7.015-20.97,10.592a4.84,4.84,0,0,1-4.717-.095q-34.676-16.655-69.388-33.234c-4.326-2.07-8.646-4.156-12.99-6.188-1.18-.552-2.612-1.714-3.659-.133-1.078,1.628.607,2.415,1.609,3.242q28.194,23.286,56.41,46.543c.076.062.154.122.23.183,4.1,3.324,4.042,3.885-.681,6.247q-16.416,8.212-32.837,16.416c-3.56,1.777-3.815,1.7-5.484-1.907q-19.218-41.581-38.418-83.169c-.409-.885-.913-1.726-1.373-2.587Z" transform="translate(0)" fill="#f1f9ff"/>
        <path id="Path_1528" data-name="Path 1528" d="M-500.757-2482.665c-.172.559-.344,1.224-.577,1.866q-4.564,12.559-9.154,25.109c-.423,1.153-.638,2.722-2.3,2.642s-1.723-1.682-2.029-2.86c-1.284-4.925-2.616-9.842-3.693-14.814a10.066,10.066,0,0,0-3.758-6.013q-19.817-16.143-39.482-32.472c-.985-.814-2.682-1.553-1.593-3.236.947-1.463,2.307-.529,3.413,0q28.5,13.592,56.985,27.225C-501.873-2484.708-500.755-2484.24-500.757-2482.665Z" transform="translate(-30.515 -22.413)" fill="#f1f9ff"/>
        <path id="Path_1529" data-name="Path 1529" d="M-497.874-2421.735c-.242,1.97-1.316,2.849-2.8,1.808-5.193-3.637-10.282-7.427-15.329-11.266-1.355-1.031-.941-2.333.44-3.062,3.537-1.865,7.125-3.632,10.713-5.4a1.675,1.675,0,0,1,2.567,1.095C-500.74-2432.916-499.307-2427.244-497.874-2421.735Z" transform="translate(-49.827 -52.632)" fill="#f1f9ff"/>
      </g>
    </g>
  </g>
</svg>
