<svg id="g_" data-name="g+" xmlns="http://www.w3.org/2000/svg" width="63.711" height="58.336" viewBox="0 0 63.711 58.336">
  <rect id="Rectangle_121" data-name="Rectangle 121" width="58.336" height="58.336" fill="none"/>
  <path id="Path_51" data-name="Path 51" d="M63.711,17.521v5.973H57.738v5.973H51.765V23.1H45.792V17.521h5.973V11.548h5.973v5.973Zm-43.4,0H39.421c0,1.195.4,1.991.4,3.186,0,11.548-7.566,19.91-19.512,19.91A20.308,20.308,0,1,1,20.308,0,19.663,19.663,0,0,1,33.847,5.177l-5.575,5.575a10.616,10.616,0,0,0-7.964-3.186A12.83,12.83,0,0,0,7.566,20.308,12.579,12.579,0,0,0,20.308,33.05c7.964,0,11.149-5.575,11.548-8.76H20.308Z" transform="translate(0 7.512)" fill="#2699fb" fill-rule="evenodd"/>
</svg>
