<svg xmlns="http://www.w3.org/2000/svg" width="25.545" height="18.562" viewBox="0 0 25.545 18.562">
  <g id="infant" transform="translate(-1369.01 21.915)">
    <g id="Group_61" data-name="Group 61" transform="translate(-94 72.317)">
      <path id="Path_1521" data-name="Path 1521" d="M1467.57-68.894a9,9,0,0,1-1.363-1.85,4.225,4.225,0,0,1,3.21-6.247,4.839,4.839,0,0,1,.732-.066q3.317-.007,6.633,0a3.362,3.362,0,0,1,1.921.569,2.3,2.3,0,0,1,.918,1.207q1.361,4.111,2.714,8.225a1.66,1.66,0,0,1-.907,2.275,1.834,1.834,0,0,1-2.565-.67,13.852,13.852,0,0,1-1.106-2.421,1.056,1.056,0,0,0-1.223-.811c-1.236.068-2.479.018-3.719.02-.457,0-.579.118-.585.58-.007.5,0,1.006,0,1.509a1.768,1.768,0,0,1-1.935,1.909c-1.813,0-3.626-.02-5.439.007a1.771,1.771,0,0,1-1.841-1.994,3.025,3.025,0,0,1,.181-1,1.648,1.648,0,0,1,1.677-1.185c.772,0,1.544,0,2.316,0A.654.654,0,0,0,1467.57-68.894Z" transform="translate(0 -11.143)" fill="#2699fb"/>
      <path id="Path_1522" data-name="Path 1522" d="M1510.361-89.765a4.492,4.492,0,0,1,4.472-4.467,4.418,4.418,0,0,1,4.451,4.473,4.381,4.381,0,0,1-4.44,4.441A4.44,4.44,0,0,1,1510.361-89.765Z" transform="translate(-30.729)" fill="#2699fb"/>
    </g>
  </g>
</svg>
