<svg xmlns="http://www.w3.org/2000/svg" width="21" height="31.96" viewBox="0 0 21 31.96">
  <g id="luggage" transform="translate(0 0)">
    <path id="Path_1491" data-name="Path 1491" d="M11.249,4.985V31.278a3.119,3.119,0,0,1-2.847-3.1V8.087A3.119,3.119,0,0,1,11.249,4.985Zm.542,26.322h.284V4.956h-.284ZM24.119,4.956h.7V31.308h-.5v.653H22.879v-.653H14.923v.653H13.488v-.653h-.5V4.956h.7V.783A.782.782,0,0,1,14.466,0h8.87a.783.783,0,0,1,.782.783V4.956Zm-2.575,6.938a1.229,1.229,0,1,0-1.229-1.229A1.228,1.228,0,0,0,21.544,11.895Zm-1.81-1.153-2.458.967L18.648,15.2l2.458-.967ZM15.25,4.956h7.3V1.565h-7.3Zm-.293,8.964,1.5.334.335-1.5-1.5-.335Zm.764,3.164c0,1,.563,1.811,1.258,1.811s1.259-.811,1.259-1.811-.562-1.813-1.259-1.813S15.721,16.084,15.721,17.085Zm3.963,3.2h-3.5v1.167h3.5Zm3.163-3.533h-3.5v1.167h3.5Zm2.883,14.56h.284V4.956H25.73Zm.825-26.322V31.278a3.119,3.119,0,0,0,2.847-3.1V8.087A3.118,3.118,0,0,0,26.555,4.985Z" transform="translate(-8.402)" fill="#959dad"/>
  </g>
</svg>
