<svg xmlns="http://www.w3.org/2000/svg" xmlns:xlink="http://www.w3.org/1999/xlink" width="25.268" height="25.268" viewBox="0 0 25.268 25.268"><defs><clipPath id="a"><rect width="25.268" height="25.268" fill="none"/></clipPath></defs><g clip-path="url(#a)"><rect width="25.268" height="25.268" fill="none"/><path d="M25.142,22.928,19.924,17.71a10.826,10.826,0,0,0,2.214-6.641A11,11,0,0,0,11.069,0,11,11,0,0,0,0,11.069,11,11,0,0,0,11.069,22.138a10.826,10.826,0,0,0,6.641-2.214l5.218,5.218ZM3.163,11.069a7.829,7.829,0,0,1,7.906-7.906,7.829,7.829,0,0,1,7.906,7.906,7.829,7.829,0,0,1-7.906,7.906A7.829,7.829,0,0,1,3.163,11.069Z" fill="#fff"/></g></svg>