<svg xmlns="http://www.w3.org/2000/svg" xmlns:xlink="http://www.w3.org/1999/xlink" width="25.268" height="25.268" viewBox="0 0 25.268 25.268"><defs><clipPath id="a"><rect width="25.268" height="25.268" fill="none"/></clipPath></defs><g clip-path="url(#a)"><path d="M15.793,11.055a1.492,1.492,0,0,0,1.579,1.579,1.492,1.492,0,0,0,1.579-1.579,1.492,1.492,0,0,0-1.579-1.579A1.492,1.492,0,0,0,15.793,11.055Zm-9.476,0A1.492,1.492,0,0,0,7.9,12.634a1.492,1.492,0,0,0,1.579-1.579A1.492,1.492,0,0,0,7.9,9.476,1.492,1.492,0,0,0,6.317,11.055ZM23.689,7.738l1.579,15.793a1.793,1.793,0,0,1-.474,1.263,1.23,1.23,0,0,1-1.105.474H1.579a1.23,1.23,0,0,1-1.105-.474A1.793,1.793,0,0,1,0,23.531L1.579,7.738A1.679,1.679,0,0,1,3.159,6.317H6.317a6.317,6.317,0,1,1,12.634,0H22.11A1.679,1.679,0,0,1,23.689,7.738Zm-7.9-1.421H9.476a3.159,3.159,0,1,1,6.317,0Z" fill="#fff" fill-rule="evenodd"/></g></svg>