<svg id="twitter" xmlns="http://www.w3.org/2000/svg" width="58.336" height="58.336" viewBox="0 0 58.336 58.336">
  <rect id="Rectangle_1457" data-name="Rectangle 1457" width="58.336" height="58.336" transform="translate(0)" fill="none"/>
  <path id="Path_2" data-name="Path 2" d="M56.473,49.317c22.038,0,34.03-18.149,34.03-34.029v-1.62A26.344,26.344,0,0,0,96.336,7.51,26.9,26.9,0,0,1,89.53,9.454a12.609,12.609,0,0,0,5.185-6.482,29.727,29.727,0,0,1-7.454,2.917A11.574,11.574,0,0,0,78.511,2,12.176,12.176,0,0,0,66.52,13.991a6.318,6.318,0,0,0,.324,2.593A33.507,33.507,0,0,1,42.213,3.945a12.412,12.412,0,0,0-1.62,6.158,12.876,12.876,0,0,0,5.185,10.047,10.926,10.926,0,0,1-5.51-1.62h0A11.844,11.844,0,0,0,49.991,30.2a9.991,9.991,0,0,1-3.241.324,5.515,5.515,0,0,1-2.269-.324,12.278,12.278,0,0,0,11.343,8.426,24.469,24.469,0,0,1-14.908,5.185A8.973,8.973,0,0,1,38,43.484a30.59,30.59,0,0,0,18.473,5.834" transform="translate(-38 5.292)" fill="#2699fb" fill-rule="evenodd"/>
</svg>
